<svg width="32" height="32" viewBox="0 0 32 32" fill="none" xmlns="http://www.w3.org/2000/svg">
<g clip-path="url(#clip0_5_67)">
<path d="M21.3497 1.81953L15.0059 8.16953L14.4184 7.58203C13.6372 6.80078 12.3684 6.80078 11.5872 7.58203C10.8059 8.36328 10.8059 9.63203 11.5872 10.4133L21.5872 20.4133C22.3684 21.1945 23.6372 21.1945 24.4184 20.4133C25.1997 19.632 25.1997 18.3633 24.4184 17.582L23.8309 16.9945L30.1747 10.6445C32.6122 8.20703 32.6122 4.25703 30.1747 1.82578C27.7372 -0.605468 23.7872 -0.611718 21.3559 1.82578L21.3497 1.81953ZM3.46218 20.2008C2.52468 21.1383 1.99968 22.4133 1.99968 23.7383V26.3883L0.33718 28.882C-0.19407 29.6758 -0.08782 30.732 0.58718 31.407C1.26218 32.082 2.31843 32.1883 3.11218 31.657L5.60593 29.9945H8.25593C9.58093 29.9945 10.8559 29.4695 11.7934 28.532L19.3372 20.9883L16.5059 18.157L8.96218 25.7008C8.77468 25.8883 8.51843 25.9945 8.25593 25.9945H5.99968V23.7383C5.99968 23.4758 6.10593 23.2195 6.29343 23.032L13.8372 15.4883L11.0059 12.657L3.46218 20.2008Z" fill="#F14B00"/>
</g>
<defs>
<clipPath id="clip0_5_67">
<rect width="32" height="32" fill="white"/>
</clipPath>
</defs>
</svg>
