<svg width="32" height="32" viewBox="0 0 32 32" fill="none" xmlns="http://www.w3.org/2000/svg">
<path d="M17.6 3.19995H30.4C31.285 3.19995 32 3.91495 32 4.79995V27.2C32 28.085 31.285 28.8 30.4 28.8H17.6C16.715 28.8 16 28.085 16 27.2V4.79995C16 3.91495 16.715 3.19995 17.6 3.19995ZM24 13.2C23.335 13.2 22.8 13.735 22.8 14.4V17.6C22.8 18.265 23.335 18.8 24 18.8C24.665 18.8 25.2 18.265 25.2 17.6V14.4C25.2 13.735 24.665 13.2 24 13.2ZM25.2 22.4C25.2 21.735 24.665 21.2 24 21.2C23.335 21.2 22.8 21.735 22.8 22.4V25.6C22.8 26.265 23.335 26.8 24 26.8C24.665 26.8 25.2 26.265 25.2 25.6V22.4ZM24 5.19995C23.335 5.19995 22.8 5.73495 22.8 6.39995V9.59995C22.8 10.265 23.335 10.8 24 10.8C24.665 10.8 25.2 10.265 25.2 9.59995V6.39995C25.2 5.73495 24.665 5.19995 24 5.19995ZM1.6 7.99995H14.4V11.2H12.4V14.4H14.4V19.2C11.75 19.2 9.6 21.35 9.6 24V27.2C9.6 28.085 8.885 28.8 8 28.8H6.4C5.515 28.8 4.8 28.085 4.8 27.2V24C4.8 21.35 2.65 19.2 0 19.2V14.4H3.6V11.2H1.6C0.715 11.2 0 10.485 0 9.59995C0 8.71495 0.715 7.99995 1.6 7.99995ZM10 11.2H6V14.4H10V11.2Z" fill="#F14B00"/>
</svg>
